# xmcd CD database file
#
# Track frame offsets:
#	187
#	25782
#	46332
#	71237
#	96100
#	121595
#	146997
#	172765
#	194735
#
# Disc length: 2895 seconds
#
# Revision: 0
# Processed by: cddbd v1.5PL3 Copyright (c) Steve Scherf et al.
# Submitted via: CDex 1.50beta8
#
DISCID=7c0b4d09
DTITLE=中川昌三 - TOUCH OF SPRING
DYEAR=1988
DGENRE=Jazz
TTITLE0=Touch of Spring
TTITLE1=アマデウス賛歌
TTITLE2=夢の後に
TTITLE3=Bacchus Walk
TTITLE4=愛の夢
TTITLE5=シシリアの想い出
TTITLE6=Funky Tambourin
TTITLE7=Salty Sugar
TTITLE8=Bule Etude
EXTD=YEAR: 1988
EXTT0=
EXTT1=
EXTT2=
EXTT3=
EXTT4=
EXTT5=
EXTT6=
EXTT7=
EXTT8=
PLAYORDER=
